<svg aria-hidden="true" style="position: absolute; width: 0; height: 0; overflow: hidden;" version="1.1" xmlns="http://www.w3.org/2000/svg" xmlns:xlink="http://www.w3.org/1999/xlink">
<defs>
<symbol id="icon-arrow" viewBox="0 0 32 32">
<path d="M0.944 17.257c-0.322-0.322-0.52-0.766-0.52-1.257s0.199-0.935 0.52-1.257l11.314-11.314c0.324-0.335 0.777-0.543 1.279-0.543 0.982 0 1.778 0.796 1.778 1.778 0 0.502-0.208 0.955-0.542 1.278l-0.001 0-10.057 10.057 10.057 10.057c0.335 0.324 0.543 0.777 0.543 1.279 0 0.982-0.796 1.778-1.778 1.778-0.502 0-0.955-0.208-1.278-0.542l-0-0-11.316-11.314zM32 17.778h-29.799v-3.556h29.799v3.556z"></path>
</symbol>
<symbol id="icon-cosmetic" viewBox="0 0 32 32">
<path d="M9.755 11.589h-9.892c-0.304 0-0.55 0.235-0.55 0.527v3.164c0 0.292 0.246 0.528 0.55 0.528h0.549v12.127c0 0.292 0.246 0.528 0.55 0.528h7.693c0.304 0 0.55-0.236 0.55-0.528v-12.127h0.549c0.304 0 0.549-0.236 0.549-0.528v-3.163c0-0.292-0.246-0.528-0.549-0.528zM3.71 21.607v-1.055h3.297v-1.055h-3.297v-1.055h4.396v6.854h-4.395v-2.636h1.099v-1.055h-1.1zM8.106 17.389h-4.945c-0.304 0-0.549 0.236-0.549 0.528v7.908c0 0.292 0.246 0.528 0.549 0.528h4.946v1.055h-6.595v-11.6h6.594v1.581zM9.206 14.753h-8.794v-2.109h8.794v2.109zM17.037 11.688v-3.855c0-0.301-0.246-0.543-0.55-0.543h-0.549v-2.713h1.099v-1.087h-6.045v1.087h3.847v2.713h-0.55c-0.001 0-0.002 0-0.004 0-0.3 0-0.544 0.243-0.545 0.543v3.855c-1.252 0.252-2.198 1.348-2.198 2.659v13.571c0 0.301 0.246 0.543 0.55 0.543h6.594c0.001 0 0.002 0 0.004 0 0.3 0 0.544-0.243 0.545-0.543v-13.57c0-1.31-0.945-2.407-2.198-2.659zM14.838 8.377h1.099v3.257h-1.099v-3.257zM14.288 12.718h2.198c0.909 0 1.648 0.731 1.648 1.628v0.543h-5.495v-0.543c0-0.898 0.74-1.628 1.648-1.628zM18.136 25.203h-5.496v-1.084h2.198v-1.087h-2.198v-7.056h5.495v9.228zM12.64 27.375v-1.086h5.495v1.086h-5.495zM31.085 10.914h-9.274c-0.285 0.005-0.515 0.237-0.515 0.523 0 0.003 0 0.006 0 0.009v-0 16.484c0 0.295 0.231 0.532 0.515 0.532h9.274c0.284 0 0.515-0.238 0.515-0.531v-16.484c0-0.003 0-0.006 0-0.009 0-0.286-0.23-0.519-0.515-0.523h-0zM30.569 27.398h-8.243v-15.42h8.243v15.42z"></path>
<path d="M7.556 21.712h-1.374v0.675h1.374v-0.675zM17.174 23.062h-1.374v1.35h1.374v-1.35zM15.457 21.712c1.325 0 2.404-1.059 2.404-2.362s-1.078-2.362-2.404-2.362c-1.326 0-2.404 1.060-2.404 2.362s1.078 2.362 2.404 2.362zM15.457 18.169c0.662 0 1.202 0.53 1.202 1.181s-0.54 1.181-1.203 1.181c-0.662 0-1.202-0.53-1.202-1.181s0.539-1.181 1.202-1.181zM25.159 16.313h2.576c0.995 0 1.804-0.756 1.804-1.686s-0.809-1.688-1.804-1.688h-2.576c-0.994 0-1.803 0.758-1.803 1.688s0.809 1.687 1.803 1.687zM28.508 14.626c0 0.398-0.347 0.723-0.773 0.723h-0.772v-1.446h0.772c0.426 0 0.773 0.324 0.773 0.723zM25.159 13.903h0.772v1.446h-0.772c-0.426 0-0.773-0.324-0.773-0.723s0.347-0.723 0.773-0.723zM25.159 21.712h2.576c0.995 0 1.804-0.908 1.804-2.024s-0.809-2.025-1.804-2.025h-2.576c-0.994 0-1.803 0.908-1.803 2.024s0.809 2.024 1.803 2.024zM28.508 19.688c0 0.478-0.347 0.867-0.773 0.867h-0.772v-1.735h0.772c0.426 0 0.773 0.389 0.773 0.868zM25.159 18.82h0.772v1.735h-0.772c-0.426 0-0.773-0.389-0.773-0.868s0.347-0.868 0.773-0.868zM25.159 26.436h2.576c0.995 0 1.804-0.908 1.804-2.024s-0.809-2.025-1.804-2.025h-2.576c-0.994 0-1.803 0.908-1.803 2.024s0.809 2.025 1.803 2.025zM28.508 24.412c0 0.479-0.347 0.868-0.773 0.868h-0.772v-1.735h0.772c0.426 0 0.773 0.389 0.773 0.868zM25.159 23.545h0.772v1.735h-0.772c-0.426 0-0.773-0.389-0.773-0.868s0.347-0.868 0.773-0.868z"></path>
</symbol>
<symbol id="icon-crown" viewBox="0 0 32 32">
<path d="M29.687 10.327c-0.237-0.219-0.539-0.371-0.874-0.424l-0.010-0.001c-0.071-0.011-0.153-0.017-0.237-0.017-0.261 0-0.508 0.062-0.726 0.172l0.009-0.004-6.313 3.080c-0.033 0.020-0.072 0.032-0.114 0.032-0.059 0-0.113-0.023-0.153-0.061l0 0c-0.024-0.022-0.043-0.049-0.057-0.079l-0.001-0.002-3.688-7.288c-0.148-0.3-0.365-0.545-0.631-0.724l-0.007-0.004c-0.25-0.166-0.556-0.266-0.886-0.267h-0c-0.33 0.001-0.637 0.101-0.893 0.271l0.006-0.004c-0.269 0.175-0.489 0.427-0.639 0.728l-3.687 7.287c-0.015 0.032-0.035 0.059-0.059 0.081l-0 0c-0.023 0.022-0.051 0.039-0.081 0.050l-0.002 0.001c-0.030 0.010-0.062 0.013-0.093 0.010-0.034-0.004-0.064-0.015-0.091-0.031l0.001 0.001-6.313-3.080c-0.211-0.108-0.46-0.172-0.723-0.172-0.081 0-0.16 0.006-0.238 0.018l0.009-0.001c-0.344 0.053-0.646 0.205-0.885 0.424l0.001-0.001c-0.251 0.232-0.44 0.527-0.542 0.86l-0.004 0.014c-0.058 0.183-0.091 0.394-0.091 0.613 0 0.158 0.017 0.312 0.050 0.46l-0.003-0.014 3.189 14.891c0.053 0.251 0.153 0.489 0.293 0.697s0.316 0.383 0.519 0.513c0.267 0.18 0.575 0.275 0.888 0.275 0.16-0.001 0.32-0.025 0.475-0.069 2.671-0.846 5.743-1.333 8.928-1.333 3.169 0 6.226 0.483 9.101 1.378l-0.216-0.058c0.227 0.072 0.465 0.093 0.7 0.060 0.235-0.031 0.462-0.115 0.667-0.247 0.209-0.137 0.384-0.309 0.519-0.509l0.004-0.006c0.141-0.209 0.243-0.447 0.297-0.701l3.175-14.891c0.033-0.139 0.052-0.297 0.052-0.461 0-0.211-0.032-0.416-0.090-0.608l0.004 0.015c-0.103-0.346-0.29-0.641-0.539-0.87l-0.001-0.001zM28.813 11.867l-3.188 14.891c-0.017 0.073-0.057 0.134-0.111 0.178l-0.001 0c-0.040 0.022-0.087 0.035-0.137 0.035-0.022 0-0.044-0.003-0.065-0.007l0.002 0c-2.786-0.881-5.99-1.389-9.313-1.389s-6.527 0.508-9.539 1.45l0.226-0.061c-0.021 0.007-0.044 0.011-0.069 0.011-0.048 0-0.092-0.015-0.128-0.040l0.001 0c-0.030-0.020-0.055-0.046-0.074-0.075l-0.001-0.001c-0.019-0.029-0.034-0.063-0.041-0.1l-0-0.002-3.187-14.891c-0.003-0.016-0.005-0.035-0.005-0.054 0-0.068 0.021-0.13 0.057-0.182l-0.001 0.001c0.023-0.032 0.053-0.058 0.087-0.077l0.001-0.001c0.032-0.018 0.069-0.029 0.109-0.030h0l0.1 0.027 6.325 3.093c0.208 0.106 0.453 0.169 0.713 0.169 0.198 0 0.388-0.036 0.563-0.102l-0.011 0.004c0.415-0.153 0.762-0.473 0.972-0.895l3.687-7.288c0.020-0.043 0.049-0.079 0.086-0.105l0.001-0.001c0.035-0.024 0.078-0.039 0.125-0.039s0.090 0.014 0.126 0.039l-0.001-0c0.038 0.026 0.068 0.062 0.087 0.104l0.001 0.002 3.687 7.287c0.211 0.422 0.558 0.741 0.973 0.895s0.867 0.128 1.265-0.069l6.325-3.093c0.030-0.015 0.065-0.024 0.103-0.024 0.062 0 0.118 0.025 0.159 0.064l-0-0c0.037 0.033 0.064 0.075 0.079 0.123l0.001 0.002c0.009 0.027 0.014 0.058 0.014 0.091 0 0.021-0.002 0.042-0.006 0.062l0-0.002zM20.75 22.315c-0.021 0.207-0.111 0.39-0.247 0.527l0-0c-0.138 0.137-0.317 0.213-0.503 0.215h-0.075c-1.178-0.138-2.542-0.217-3.925-0.217s-2.747 0.079-4.089 0.232l0.164-0.015c-0.023 0.003-0.050 0.004-0.078 0.004-0.181 0-0.347-0.069-0.472-0.181l0.001 0.001c-0.153-0.139-0.255-0.332-0.276-0.549l-0-0.003c-0.002-0.023-0.003-0.049-0.003-0.076 0-0.199 0.065-0.383 0.174-0.532l-0.002 0.002c0.118-0.162 0.296-0.274 0.501-0.302l0.004-0c1.223-0.151 2.639-0.237 4.075-0.237s2.852 0.086 4.243 0.254l-0.168-0.016c0.196 0.024 0.375 0.131 0.501 0.297s0.188 0.38 0.173 0.596z"></path>
</symbol>
<symbol id="icon-facebook" viewBox="0 0 32 32">
<path d="M23.987 2.128c-1.181-0.133-2.549-0.208-3.936-0.208-0.040 0-0.080 0-0.12 0h0.006c-4.484 0-7.27 2.856-7.27 7.453v3.122h-3.767c0 0 0 0 0 0-0.368 0-0.666 0.298-0.667 0.666v5.134c0.001 0.368 0.299 0.666 0.667 0.666 0 0 0 0 0 0h3.767v10.294c0.001 0.368 0.298 0.665 0.666 0.666h5.304c0 0 0 0 0 0 0.368 0 0.666-0.298 0.667-0.666v-10.295h3.755c0.338-0 0.616-0.251 0.661-0.577l0-0.003 0.663-5.133c0.004-0.026 0.006-0.057 0.006-0.088 0-0.367-0.298-0.665-0.665-0.665-0.001 0-0.002 0-0.003 0h-4.417v-2.611c0-1.294 0.26-1.834 1.877-1.834h2.72c0.368-0.001 0.665-0.298 0.666-0.666v-4.594c-0.001-0.337-0.251-0.616-0.577-0.66l-0.003-0zM23.233 6.715l-2.053 0.001c-2.876 0-3.21 1.808-3.21 3.167v3.28c0.001 0.368 0.298 0.665 0.666 0.666h4.328l-0.492 3.8h-3.835c-0.368 0.001-0.666 0.299-0.666 0.667 0 0 0 0 0 0v0 10.29h-3.971v-10.29c0 0 0 0 0 0 0-0.368-0.299-0.667-0.667-0.667-0 0-0.001 0-0.001 0h-3.764v-3.8h3.765c0 0 0 0 0 0 0.368 0 0.666-0.298 0.667-0.666v-3.79c0-3.832 2.22-6.12 5.937-6.12 1.346 0 2.56 0.074 3.296 0.138v3.324z"></path>
</symbol>
<symbol id="icon-instagram" viewBox="0 0 32 32">
<path d="M16 10.25c-3.176 0-5.75 2.574-5.75 5.75s2.574 5.75 5.75 5.75v0c3.176 0 5.75-2.574 5.75-5.75s-2.574-5.75-5.75-5.75v0zM16 20.25c-2.347 0-4.25-1.903-4.25-4.25s1.903-4.25 4.25-4.25c2.347 0 4.25 1.903 4.25 4.25v0c-0.007 2.344-1.906 4.243-4.249 4.25h-0.001zM21.5 3.75h-11c-3.728 0-6.75 3.022-6.75 6.75v0 11c0 3.728 3.022 6.75 6.75 6.75v0h11c3.728 0 6.75-3.022 6.75-6.75v0-11c0-3.728-3.022-6.75-6.75-6.75v0zM26.75 21.5c0 2.899-2.351 5.25-5.25 5.25v0h-11c-2.899 0-5.25-2.351-5.25-5.25v0-11c0-2.899 2.351-5.25 5.25-5.25v0h11c2.899 0 5.25 2.351 5.25 5.25v0 11zM23.75 9.5c0 0.69-0.56 1.25-1.25 1.25s-1.25-0.56-1.25-1.25v0c0-0.69 0.56-1.25 1.25-1.25s1.25 0.56 1.25 1.25v0z"></path>
</symbol>
<symbol id="icon-phone" viewBox="0 0 32 32">
<path d="M27.655 22.957l-0.173-0.216c-1.372-1.734-2.52-2.637-3.503-2.756-0.85-0.116-1.673 0.472-2.548 1.078l-0.935 0.584c-0.092 0.048-0.2 0.093-0.312 0.128l-0.014 0.004c-0.547 0.154-1.927 0.245-2.708-0.47-0.91-0.832-2.32-2.354-3.418-3.685-1.048-1.377-2.2-3.095-2.801-4.176-0.508-0.916-0.083-2.197 0.201-2.672 0.056-0.093 0.13-0.185 0.21-0.276l0.825-0.761c0.012-0.012 0.017-0.027 0.028-0.038 0.008-0.008 0.021-0.005 0.030-0.012 0.745-0.628 1.514-1.274 1.62-2.105 0.123-0.976-0.483-2.296-1.858-4.030l-0.168-0.215c-0.851-1.091-2.137-2.74-3.985-2.469-0.727 0.108-1.376 0.356-2.046 0.776-0.006 0.004-0.010 0.012-0.016 0.016-0.005 0.004-0.012 0.004-0.017 0.008l-0.932 0.69c-0.010 0.006-0.015 0.018-0.024 0.026-0.007 0.006-0.017 0.008-0.025 0.014-0.108 0.091-0.216 0.184-0.323 0.28-0.945 0.843-2.992 3.29-1.596 7.815 0.901 2.923 2.76 6.333 5.388 9.883l-0.025 0.021 1.449 1.805 0.012-0.009c2.85 3.37 5.75 5.976 8.407 7.553 1.773 1.054 3.322 1.402 4.597 1.402 1.677 0 2.879-0.603 3.481-0.995l0.379-0.253c0.043-0.030 0.073-0.071 0.104-0.108l0.825-0.622c0.010-0.008 0.015-0.018 0.024-0.026 0.004-0.004 0.010-0.003 0.016-0.007 0.587-0.536 0.994-1.097 1.276-1.763 0.732-1.705-0.578-3.338-1.445-4.42zM28.12 26.959c-0.22 0.517-0.541 0.957-1.005 1.384l-1.228 0.924c-1.112 0.722-3.49 1.616-6.943-0.435-2.657-1.577-5.582-4.244-8.461-7.712l-0.779-0.984c-2.71-3.595-4.617-7.037-5.517-9.955-1.17-3.793 0.304-5.828 1.29-6.706 0.1-0.091 0.2-0.175 0.3-0.259l0.003-0.004 0.895-0.663c0.463-0.309 1.013-0.529 1.605-0.621l0.023-0.003c1.239-0.186 2.247 1.12 2.987 2.070l0.173 0.22c1.536 1.937 1.684 2.858 1.636 3.234-0.053 0.418-0.688 0.952-1.248 1.423l-0.079 0.067-0.006 0.009-0.012 0.007-0.852 0.788c-0.006 0.005-0.008 0.012-0.014 0.018s-0.016 0.010-0.021 0.016c-0.121 0.133-0.232 0.28-0.33 0.437l-0.007 0.013c-0.48 0.801-0.931 2.457-0.218 3.738 0.623 1.12 1.808 2.89 2.898 4.319 1.138 1.381 2.59 2.95 3.532 3.81 0.705 0.643 1.686 0.86 2.536 0.86 0.454 0 0.872-0.063 1.188-0.153 0.166-0.048 0.338-0.117 0.516-0.204 0.010-0.005 0.016-0.014 0.026-0.021 0.006-0.003 0.014-0.001 0.019-0.005l0.99-0.619c0.031-0.021 0.053-0.050 0.080-0.076l0.011 0.013c0.61-0.422 1.304-0.918 1.739-0.846 0.385 0.046 1.26 0.417 2.799 2.36l0.177 0.222c0.75 0.935 1.776 2.215 1.297 3.334z"></path>
</symbol>
<symbol id="icon-science" viewBox="0 0 32 32">
<path d="M16.061 1.4c-1.050 0-2.031 0.478-2.867 1.261s-1.551 1.873-2.148 3.195c-0.125 0.277-0.244 0.565-0.358 0.861-0.219-0.038-0.536-0.081-0.856-0.114l-0.071-0.006c-0.301-0.033-0.667-0.057-1.037-0.066l-0.018-0c-1.027-0.025-1.965 0.080-2.787 0.329-1.096 0.333-2 0.943-2.525 1.852s-0.601 1.998-0.341 3.113c0.26 1.115 0.847 2.28 1.693 3.457 0.177 0.247 0.367 0.494 0.567 0.742-0.169 0.206-0.355 0.447-0.534 0.694l-0.033 0.047c-0.846 1.177-1.433 2.342-1.693 3.457s-0.183 2.204 0.341 3.113c0.525 0.909 1.43 1.519 2.526 1.851s2.398 0.407 3.84 0.263c0.303-0.030 0.611-0.071 0.926-0.12 0.111 0.291 0.231 0.579 0.359 0.863 0.597 1.321 1.312 2.411 2.148 3.195s1.817 1.261 2.867 1.261 2.031-0.479 2.867-1.261c0.835-0.783 1.551-1.873 2.147-3.195 0.129-0.284 0.248-0.572 0.36-0.863 0.313 0.049 0.622 0.090 0.924 0.12 1.443 0.144 2.745 0.070 3.841-0.263 1.097-0.332 2.001-0.943 2.526-1.852s0.601-1.997 0.341-3.113c-0.26-1.115-0.847-2.28-1.693-3.457-0.212-0.294-0.398-0.536-0.59-0.772l0.024 0.030c0.196-0.242 0.385-0.489 0.567-0.742 0.847-1.177 1.433-2.342 1.693-3.457s0.184-2.204-0.341-3.113c-0.525-0.909-1.43-1.52-2.525-1.852-0.822-0.249-1.76-0.353-2.787-0.329-0.387 0.010-0.753 0.034-1.115 0.072l0.060-0.005c-0.302 0.030-0.611 0.071-0.926 0.12-0.152-0.401-0.272-0.685-0.4-0.965l0.042 0.103c-0.597-1.321-1.312-2.412-2.148-3.195s-1.817-1.261-2.867-1.261zM16.061 2.567c0.7 0 1.387 0.308 2.068 0.946 0.68 0.638 1.331 1.603 1.881 2.823 0.089 0.199 0.175 0.4 0.255 0.603-1.339 0.298-2.756 0.755-4.205 1.365-1.449-0.61-2.867-1.067-4.205-1.364 0.083-0.207 0.168-0.409 0.255-0.603 0.551-1.22 1.201-2.185 1.882-2.823s1.367-0.945 2.068-0.945zM8.337 7.696c0.017-0 0.038-0 0.059-0 0.44 0 0.875 0.023 1.304 0.067l-0.054-0.005c0.213 0.021 0.431 0.048 0.652 0.080-0.412 1.309-0.725 2.764-0.922 4.324-1.253 0.95-2.357 1.95-3.284 2.96-0.136-0.171-0.267-0.346-0.395-0.523-0.781-1.087-1.292-2.133-1.504-3.041s-0.135-1.657 0.215-2.263c0.35-0.607 0.96-1.047 1.853-1.318 0.586-0.178 1.287-0.273 2.077-0.28zM23.785 7.696c0.789 0.007 1.491 0.103 2.077 0.281 0.893 0.271 1.503 0.711 1.853 1.318s0.427 1.355 0.215 2.263c-0.212 0.909-0.723 1.955-1.504 3.041-0.127 0.177-0.26 0.352-0.395 0.524-0.927-1.011-2.031-2.010-3.283-2.96-0.196-1.56-0.51-3.016-0.921-4.324 0.22-0.033 0.438-0.060 0.651-0.081 0.376-0.040 0.811-0.063 1.252-0.063 0.020 0 0.040 0 0.059 0h-0.003zM20.665 8.049c0.291 0.874 0.555 1.941 0.741 3.035l0.019 0.134c-1.102-0.757-2.375-1.503-3.699-2.16l-0.185-0.083c1.083-0.403 2.133-0.713 3.124-0.926zM11.458 8.049c0.99 0.213 2.040 0.523 3.123 0.927-1.509 0.739-2.781 1.485-3.992 2.312l0.109-0.071c0.205-1.227 0.469-2.294 0.805-3.328l-0.045 0.16zM16.061 9.577c1.16 0.514 2.104 1.003 3.017 1.538l-0.141-0.076c0.963 0.555 1.867 1.147 2.705 1.761 0.113 1.033 0.173 2.112 0.173 3.223 0 1.11-0.061 2.189-0.173 3.221-0.766 0.568-1.649 1.149-2.563 1.684l-0.142 0.077c-0.773 0.459-1.717 0.948-2.689 1.386l-0.189 0.076c-1.16-0.514-2.105-1.003-3.018-1.538l0.141 0.076c-1.055-0.611-1.938-1.192-2.786-1.818l0.082 0.058c-0.11-0.962-0.173-2.078-0.173-3.208 0-0.005 0-0.010 0-0.016v0.001c0-1.111 0.060-2.19 0.173-3.223 0.766-0.568 1.649-1.15 2.563-1.684l0.141-0.076c0.772-0.459 1.716-0.947 2.688-1.385l0.188-0.076zM16.14 11.335l-3.344 2.064 3.344 2.063 3.343-2.063-3.343-2.064zM9.217 13.781c-0.050 0.671-0.079 1.453-0.079 2.242s0.029 1.571 0.085 2.346l-0.006-0.104c-0.859-0.708-1.631-1.441-2.348-2.226l-0.016-0.017c0.733-0.801 1.505-1.534 2.325-2.211l0.039-0.031zM22.905 13.781c0.859 0.708 1.63 1.441 2.348 2.225l0.015 0.017c-0.733 0.801-1.505 1.534-2.325 2.21l-0.039 0.031c0.050-0.671 0.079-1.453 0.079-2.242s-0.029-1.571-0.085-2.345l0.006 0.104zM12.043 14.306v4.075l3.512 2.167v-4.075l-3.512-2.167zM20.234 14.308l-3.511 2.167v4.073l3.511-2.167v-4.073zM6.091 16.923c0.927 1.011 2.031 2.010 3.284 2.96 0.196 1.56 0.51 3.015 0.921 4.323-0.22 0.032-0.438 0.059-0.651 0.080-1.331 0.133-2.493 0.053-3.385-0.218s-1.503-0.711-1.853-1.318c-0.349-0.607-0.427-1.355-0.215-2.263s0.723-1.955 1.504-3.041c0.127-0.177 0.259-0.351 0.395-0.523zM26.030 16.923c0.138 0.175 0.27 0.349 0.395 0.523 0.781 1.087 1.292 2.133 1.504 3.041s0.135 1.657-0.215 2.263c-0.35 0.607-0.96 1.047-1.853 1.318s-2.053 0.351-3.385 0.218c-0.217-0.022-0.433-0.049-0.65-0.080 0.412-1.309 0.725-2.765 0.921-4.325 1.253-0.949 2.357-1.949 3.283-2.959zM21.425 20.829c-0.205 1.228-0.469 2.295-0.805 3.329l0.045-0.16c-1.225-0.272-2.269-0.59-3.278-0.979l0.155 0.053c1.51-0.74 2.782-1.486 3.993-2.313l-0.11 0.071zM10.698 20.829c1.102 0.757 2.373 1.503 3.697 2.159l0.185 0.083c-0.854 0.336-1.898 0.655-2.971 0.898l-0.152 0.029c-0.291-0.874-0.555-1.941-0.741-3.034l-0.019-0.134zM16.095 20.882l0.043 0.027 0.043-0.027h-0.085zM16.061 23.743c1.449 0.61 2.867 1.067 4.206 1.364-0.081 0.203-0.167 0.405-0.256 0.605-0.551 1.219-1.201 2.185-1.882 2.823-0.68 0.638-1.367 0.945-2.067 0.945s-1.387-0.307-2.068-0.945c-0.681-0.638-1.331-1.603-1.882-2.823-0.089-0.2-0.175-0.401-0.256-0.605 1.339-0.297 2.757-0.754 4.205-1.364z"></path>
</symbol>
</defs>
</svg>
